<svg id="Layer_1" data-name="Layer 1" xmlns="http://www.w3.org/2000/svg" viewBox="0 0 216.14 512"><defs><style>.cls-1{fill:#fff;}</style></defs><path class="cls-1" d="M343.66,291V223.5L168.48,341.63v23.76h64.73Z" transform="translate(-148)"/><path class="cls-1" d="M168.48,146.4v54.79l81.36-54.79Z" transform="translate(-148)"/><path class="cls-1" d="M148,395.6v30h23.35a87.84,87.84,0,0,0,69.72,64V512h30V489.64a87.84,87.84,0,0,0,69.72-64h23.35v-30Z" transform="translate(-148)"/><path class="cls-1" d="M286.91,365.39h56.75V327.16Z" transform="translate(-148)"/><path class="cls-1" d="M343.66,187.32V146.4H303.54l-135.06,91v68.09Z" transform="translate(-148)"/><path class="cls-1" d="M364.14,116.4v-30H340.79a87.84,87.84,0,0,0-69.72-64V0h-30V22.36a87.83,87.83,0,0,0-69.72,64H148v30Z" transform="translate(-148)"/></svg>