<svg id="Layer_1" data-name="Layer 1" xmlns="http://www.w3.org/2000/svg" viewBox="0 0 300 512"><defs><style>.cls-1{fill:#fff;}</style></defs><path class="cls-1" d="M176,100a10,10,0,1,0-10-10A10,10,0,0,0,176,100Z" transform="translate(-106)"/><path class="cls-1" d="M336,100a10,10,0,1,0-10-10A10,10,0,0,0,336,100Z" transform="translate(-106)"/><path class="cls-1" d="M396,0a10,10,0,0,0-10,10V40H366V10a10,10,0,0,0-20,0V40H326V10a10,10,0,0,0-20,0V40H286V10a10,10,0,0,0-20,0V40H246V10a10,10,0,0,0-20,0V40H206V10a10,10,0,0,0-20,0V40H166V10a10,10,0,0,0-20,0V40H126V10a10,10,0,0,0-20,0V90a50.06,50.06,0,0,0,50,50h10v32H136a10,10,0,0,0-10,10v40a10,10,0,0,0,10,10h29.85a252.09,252.09,0,0,1-12.12,68.77A258.44,258.44,0,0,0,142,375.5c0,38.63,11.67,73.59,32.85,98.43C195.8,498.48,224.62,512,256,512s60.2-13.52,81.15-38.07C358.33,449.09,370,414.13,370,375.5a258.44,258.44,0,0,0-11.73-74.73A251,251,0,0,1,346,223.92V180h20v51a10,10,0,0,0,20,0V170a10,10,0,0,0-10-10H346V140h10a50.06,50.06,0,0,0,50-50V10A10,10,0,0,0,396,0ZM146,192h20v20H146ZM350,375.5C350,443,310.47,492,256,492s-94-49-94-116.5a237.3,237.3,0,0,1,10.77-68.61,270.9,270.9,0,0,0,13.23-83V140H326v83.92a270.85,270.85,0,0,0,13.23,83A237.3,237.3,0,0,1,350,375.5ZM386,90a30,30,0,0,1-30,30H156a30,30,0,0,1-30-30V60H386Z" transform="translate(-106)"/><path class="cls-1" d="M316.12,374.69H316a9.94,9.94,0,0,0-7,2.89,10.27,10.27,0,0,0-3,7.15A10.1,10.1,0,0,0,315.87,395H316a10.27,10.27,0,0,0,10-10.11,10.06,10.06,0,0,0-9.87-10.2Z" transform="translate(-106)"/><path class="cls-1" d="M310,414a10,10,0,0,0-13.49,4.27c-5.09,9.83-11.8,18.51-18.89,24.45S263,452,256.07,452H256a10,10,0,0,0,0,20h0a47.15,47.15,0,0,0,18.49-3.92,63.88,63.88,0,0,0,16-10c9.17-7.73,17.39-18.29,23.77-30.54A10,10,0,0,0,310,414Z" transform="translate(-106)"/><path class="cls-1" d="M306,330V210a50,50,0,0,0-100,0V330a50,50,0,0,0,100,0Zm-80,0V210a30,30,0,0,1,60,0V330a30,30,0,0,1-60,0Z" transform="translate(-106)"/><path class="cls-1" d="M256,270a10,10,0,1,0-10-10A10,10,0,0,0,256,270Z" transform="translate(-106)"/><path class="cls-1" d="M256,230a10,10,0,0,0,10-10V210a10,10,0,0,0-20,0v10A10,10,0,0,0,256,230Z" transform="translate(-106)"/><path class="cls-1" d="M266,330V300a10,10,0,0,0-20,0v30a10,10,0,0,0,20,0Z" transform="translate(-106)"/></svg>