<svg id="Layer_1" data-name="Layer 1" xmlns="http://www.w3.org/2000/svg" viewBox="0 0 512 512"><defs><style>.cls-1{fill:#fff;}</style></defs><path class="cls-1" d="M241.57,210.21,158.62,298l75.49-41.42L273.56,298l82.49-87.83-74.66,40.7Z"/><path class="cls-1" d="M256,0C114.64,0,0,114.64,0,256S114.64,512,256,512,512,397.36,512,256,397.36,0,256,0Zm2,393a164.28,164.28,0,0,1-45.54-6.39L160.84,416V360.79c-34.58-26.31-56.66-66.39-56.66-111.27C104.18,170.25,173.05,106,258,106s153.82,64.25,153.82,143.52S343,393,258,393Z"/></svg>