<svg id="Layer_1" data-name="Layer 1" xmlns="http://www.w3.org/2000/svg" viewBox="0 0 512 482.01"><defs><style>.cls-1{fill:#fff;}</style></defs><path class="cls-1" d="M488.37,32.56l-6.87,8.81a41.79,41.79,0,0,1-17.25,13A61.79,61.79,0,0,0,354.9,43l-10,15.43H0v42.35a61.37,61.37,0,0,0,61.29,61.29H195a61.37,61.37,0,0,0,61.3-61.29V88.43h69.08L121.41,401.48A61.82,61.82,0,0,0,173.05,497a62,62,0,0,0,12.89-1.36,61.37,61.37,0,0,0,39-26.72L458.44,110.49A61.44,61.44,0,0,0,468,84.69a71.76,71.76,0,0,0,37.17-24.9L512,51ZM226.29,100.82A31.37,31.37,0,0,1,195,132.15H61.29A31.37,31.37,0,0,1,30,100.82V88.43H226.29Zm207.05-6.68L199.85,452.57a31.82,31.82,0,1,1-53.33-34.74L380,59.4a31.62,31.62,0,0,1,20.09-13.77,31.83,31.83,0,0,1,33.25,48.51Z" transform="translate(0 -15)"/><path class="cls-1" d="M406.85,60.69c-7.84,0-15.34,6.89-15,15s6.58,15,15,15c7.83,0,15.34-6.89,15-15S415.25,60.69,406.85,60.69Z" transform="translate(0 -15)"/><path class="cls-1" d="M173.69,418.84c-7.83,0-15.34,6.89-15,15s6.58,15,15,15c7.84,0,15.35-6.89,15-15S182.09,418.84,173.69,418.84Z" transform="translate(0 -15)"/></svg>